<mxfile host="app.diagrams.net" modified="2021-12-16T17:59:45.280Z" agent="5.0 (Windows)" etag="84l3UU6zIziG4OLzrrSV" version="15.9.6" type="github">
  <diagram id="C3kk8iVVJ5LhTP5NbqHd" name="Page-1">
    <mxGraphModel dx="1038" dy="536" grid="1" gridSize="10" guides="1" tooltips="1" connect="1" arrows="1" fold="1" page="1" pageScale="1" pageWidth="850" pageHeight="1100" math="0" shadow="0">
      <root>
        <mxCell id="0" />
        <mxCell id="1" parent="0" />
        <mxCell id="VYZUzuegT2Te2G6oGABQ-1" value="User" style="shape=umlActor;verticalLabelPosition=bottom;verticalAlign=top;html=1;" parent="1" vertex="1">
          <mxGeometry x="150" y="130" width="30" height="60" as="geometry" />
        </mxCell>
        <mxCell id="VYZUzuegT2Te2G6oGABQ-2" value="&lt;u&gt;:Total Health&lt;br&gt;&lt;/u&gt;" style="html=1;" parent="1" vertex="1">
          <mxGeometry x="600" y="140" width="110" height="50" as="geometry" />
        </mxCell>
        <mxCell id="VYZUzuegT2Te2G6oGABQ-3" value="" style="endArrow=none;dashed=1;html=1;rounded=0;" parent="1" edge="1">
          <mxGeometry width="50" height="50" relative="1" as="geometry">
            <mxPoint x="165" y="720" as="sourcePoint" />
            <mxPoint x="165" y="220" as="targetPoint" />
          </mxGeometry>
        </mxCell>
        <mxCell id="VYZUzuegT2Te2G6oGABQ-4" value="" style="endArrow=none;dashed=1;html=1;rounded=0;" parent="1" edge="1">
          <mxGeometry width="50" height="50" relative="1" as="geometry">
            <mxPoint x="654" y="720" as="sourcePoint" />
            <mxPoint x="654.4099999999999" y="190" as="targetPoint" />
          </mxGeometry>
        </mxCell>
        <mxCell id="VYZUzuegT2Te2G6oGABQ-5" value="" style="endArrow=classic;html=1;rounded=0;" parent="1" edge="1">
          <mxGeometry width="50" height="50" relative="1" as="geometry">
            <mxPoint x="170" y="510" as="sourcePoint" />
            <mxPoint x="650" y="510" as="targetPoint" />
          </mxGeometry>
        </mxCell>
        <mxCell id="VYZUzuegT2Te2G6oGABQ-7" value="onClickExerciseButton()" style="edgeLabel;html=1;align=center;verticalAlign=middle;resizable=0;points=[];" parent="VYZUzuegT2Te2G6oGABQ-5" vertex="1" connectable="0">
          <mxGeometry x="-0.1125" y="2" relative="1" as="geometry">
            <mxPoint as="offset" />
          </mxGeometry>
        </mxCell>
        <mxCell id="VYZUzuegT2Te2G6oGABQ-6" value="" style="endArrow=classic;html=1;rounded=0;dashed=1;" parent="1" edge="1">
          <mxGeometry width="50" height="50" relative="1" as="geometry">
            <mxPoint x="650" y="270" as="sourcePoint" />
            <mxPoint x="170" y="270" as="targetPoint" />
          </mxGeometry>
        </mxCell>
        <mxCell id="VYZUzuegT2Te2G6oGABQ-11" value="Exercise Page Displayed" style="edgeLabel;html=1;align=center;verticalAlign=middle;resizable=0;points=[];" parent="VYZUzuegT2Te2G6oGABQ-6" vertex="1" connectable="0">
          <mxGeometry x="0.0542" y="1" relative="1" as="geometry">
            <mxPoint as="offset" />
          </mxGeometry>
        </mxCell>
        <mxCell id="VYZUzuegT2Te2G6oGABQ-8" value="" style="endArrow=classic;html=1;rounded=0;" parent="1" edge="1">
          <mxGeometry width="50" height="50" relative="1" as="geometry">
            <mxPoint x="170" y="240" as="sourcePoint" />
            <mxPoint x="650" y="240" as="targetPoint" />
          </mxGeometry>
        </mxCell>
        <mxCell id="VYZUzuegT2Te2G6oGABQ-9" value="goToExercisePage()" style="edgeLabel;html=1;align=center;verticalAlign=middle;resizable=0;points=[];" parent="VYZUzuegT2Te2G6oGABQ-8" vertex="1" connectable="0">
          <mxGeometry x="-0.1125" y="2" relative="1" as="geometry">
            <mxPoint as="offset" />
          </mxGeometry>
        </mxCell>
        <mxCell id="VYZUzuegT2Te2G6oGABQ-10" value="&lt;span style=&quot;font-size: 13px ; color: #000000 ; font-weight: normal ; text-decoration: none ; font-family: &amp;#34;arial&amp;#34; ; font-style: normal&quot;&gt;Calculates calories burnt, Saves updated credentials&lt;/span&gt;" style="endArrow=classic;html=1;rounded=0;dashed=1;" parent="1" edge="1">
          <mxGeometry width="50" height="50" relative="1" as="geometry">
            <mxPoint x="650" y="615" as="sourcePoint" />
            <mxPoint x="170" y="615" as="targetPoint" />
          </mxGeometry>
        </mxCell>
        <mxCell id="VYZUzuegT2Te2G6oGABQ-12" value="&lt;span style=&quot;font-size: 11px ; color: rgb(0 , 0 , 0) ; font-weight: normal ; text-decoration: none ; font-family: &amp;#34;arial&amp;#34; ; font-style: normal&quot;&gt;Credentials for selected exercise&lt;/span&gt;" style="endArrow=classic;html=1;rounded=0;dashed=1;" parent="1" edge="1">
          <mxGeometry width="50" height="50" relative="1" as="geometry">
            <mxPoint x="650" y="540" as="sourcePoint" />
            <mxPoint x="170" y="540" as="targetPoint" />
          </mxGeometry>
        </mxCell>
        <mxCell id="VYZUzuegT2Te2G6oGABQ-13" value="" style="endArrow=classic;html=1;rounded=0;" parent="1" edge="1">
          <mxGeometry width="50" height="50" relative="1" as="geometry">
            <mxPoint x="170" y="570" as="sourcePoint" />
            <mxPoint x="650" y="570" as="targetPoint" />
          </mxGeometry>
        </mxCell>
        <mxCell id="VYZUzuegT2Te2G6oGABQ-14" value="fillCredentials(time, distance, BPM, pace, weights, reps, sets)" style="edgeLabel;html=1;align=center;verticalAlign=middle;resizable=0;points=[];" parent="VYZUzuegT2Te2G6oGABQ-13" vertex="1" connectable="0">
          <mxGeometry x="-0.1125" y="2" relative="1" as="geometry">
            <mxPoint as="offset" />
          </mxGeometry>
        </mxCell>
        <mxCell id="VYZUzuegT2Te2G6oGABQ-15" value="" style="endArrow=classic;html=1;rounded=0;" parent="1" edge="1">
          <mxGeometry width="50" height="50" relative="1" as="geometry">
            <mxPoint x="170" y="590" as="sourcePoint" />
            <mxPoint x="650" y="590" as="targetPoint" />
          </mxGeometry>
        </mxCell>
        <mxCell id="VYZUzuegT2Te2G6oGABQ-16" value="calculateCalories(this.ExerciseLog)" style="edgeLabel;html=1;align=center;verticalAlign=middle;resizable=0;points=[];" parent="VYZUzuegT2Te2G6oGABQ-15" vertex="1" connectable="0">
          <mxGeometry x="-0.1125" y="2" relative="1" as="geometry">
            <mxPoint as="offset" />
          </mxGeometry>
        </mxCell>
        <mxCell id="i6Wj23x2R9heSmogibqd-1" value="&lt;font style=&quot;font-size: 22px&quot;&gt;Specify Exercise Credentials&lt;br&gt;&lt;/font&gt;" style="text;html=1;align=center;verticalAlign=middle;resizable=0;points=[];autosize=1;strokeColor=none;fillColor=none;" vertex="1" parent="1">
          <mxGeometry x="260" y="100" width="300" height="20" as="geometry" />
        </mxCell>
        <mxCell id="i6Wj23x2R9heSmogibqd-2" value="opt" style="shape=umlFrame;whiteSpace=wrap;html=1;fontSize=22;" vertex="1" parent="1">
          <mxGeometry x="170" y="300" width="480" height="180" as="geometry" />
        </mxCell>
        <mxCell id="i6Wj23x2R9heSmogibqd-4" value="" style="endArrow=classic;html=1;rounded=0;" edge="1" parent="1">
          <mxGeometry width="50" height="50" relative="1" as="geometry">
            <mxPoint x="170" y="340" as="sourcePoint" />
            <mxPoint x="650" y="340" as="targetPoint" />
          </mxGeometry>
        </mxCell>
        <mxCell id="i6Wj23x2R9heSmogibqd-5" value="onClickCalendar()" style="edgeLabel;html=1;align=center;verticalAlign=middle;resizable=0;points=[];" vertex="1" connectable="0" parent="i6Wj23x2R9heSmogibqd-4">
          <mxGeometry x="-0.1125" y="2" relative="1" as="geometry">
            <mxPoint as="offset" />
          </mxGeometry>
        </mxCell>
        <mxCell id="i6Wj23x2R9heSmogibqd-6" value="" style="endArrow=classic;html=1;rounded=0;dashed=1;" edge="1" parent="1">
          <mxGeometry width="50" height="50" relative="1" as="geometry">
            <mxPoint x="650" y="360" as="sourcePoint" />
            <mxPoint x="170" y="360" as="targetPoint" />
          </mxGeometry>
        </mxCell>
        <mxCell id="i6Wj23x2R9heSmogibqd-7" value="&lt;font style=&quot;font-size: 11px&quot;&gt;&lt;span style=&quot;color: rgb(0 , 0 , 0) ; font-weight: normal ; text-decoration: none ; font-family: &amp;#34;arial&amp;#34; ; font-style: normal&quot;&gt;Prompts User to Select a Date&lt;/span&gt;&lt;/font&gt;" style="edgeLabel;html=1;align=center;verticalAlign=middle;resizable=0;points=[];" vertex="1" connectable="0" parent="i6Wj23x2R9heSmogibqd-6">
          <mxGeometry x="0.0542" y="1" relative="1" as="geometry">
            <mxPoint as="offset" />
          </mxGeometry>
        </mxCell>
        <mxCell id="i6Wj23x2R9heSmogibqd-8" value="" style="endArrow=classic;html=1;rounded=0;" edge="1" parent="1">
          <mxGeometry width="50" height="50" relative="1" as="geometry">
            <mxPoint x="170" y="410" as="sourcePoint" />
            <mxPoint x="650" y="410" as="targetPoint" />
          </mxGeometry>
        </mxCell>
        <mxCell id="i6Wj23x2R9heSmogibqd-9" value="selectDate()" style="edgeLabel;html=1;align=center;verticalAlign=middle;resizable=0;points=[];" vertex="1" connectable="0" parent="i6Wj23x2R9heSmogibqd-8">
          <mxGeometry x="-0.1125" y="2" relative="1" as="geometry">
            <mxPoint as="offset" />
          </mxGeometry>
        </mxCell>
        <mxCell id="i6Wj23x2R9heSmogibqd-10" value="" style="endArrow=classic;html=1;rounded=0;dashed=1;" edge="1" parent="1">
          <mxGeometry width="50" height="50" relative="1" as="geometry">
            <mxPoint x="650" y="430" as="sourcePoint" />
            <mxPoint x="170" y="430" as="targetPoint" />
          </mxGeometry>
        </mxCell>
        <mxCell id="i6Wj23x2R9heSmogibqd-11" value="Exercise Buttons from Selected Date" style="edgeLabel;html=1;align=center;verticalAlign=middle;resizable=0;points=[];" vertex="1" connectable="0" parent="i6Wj23x2R9heSmogibqd-10">
          <mxGeometry x="0.0542" y="1" relative="1" as="geometry">
            <mxPoint as="offset" />
          </mxGeometry>
        </mxCell>
      </root>
    </mxGraphModel>
  </diagram>
</mxfile>
